<?xml version="1.0" encoding="UTF-8" standalone="no"?>
<svg
   xmlns:dc="http://purl.org/dc/elements/1.1/"
   xmlns:cc="http://creativecommons.org/ns#"
   xmlns:rdf="http://www.w3.org/1999/02/22-rdf-syntax-ns#"
   xmlns:svg="http://www.w3.org/2000/svg"
   xmlns="http://www.w3.org/2000/svg"
   xmlns:sodipodi="http://sodipodi.sourceforge.net/DTD/sodipodi-0.dtd"
   xmlns:inkscape="http://www.inkscape.org/namespaces/inkscape"
   height="64"
   id="Happy"
   version="1.1"
   viewBox="0 0 64 64"
   width="64"
   xml:space="preserve"
   sodipodi:docname="happy.svg"
   inkscape:version="0.92.3 (2405546, 2018-03-11)"><metadata
     id="metadata22"><rdf:RDF><cc:Work
         rdf:about=""><dc:format>image/svg+xml</dc:format><dc:type
           rdf:resource="http://purl.org/dc/dcmitype/StillImage" /></cc:Work></rdf:RDF></metadata><defs
     id="defs20" /><sodipodi:namedview
     pagecolor="#ffffff"
     bordercolor="#666666"
     borderopacity="1"
     objecttolerance="10"
     gridtolerance="10"
     guidetolerance="10"
     inkscape:pageopacity="0"
     inkscape:pageshadow="2"
     inkscape:window-width="1366"
     inkscape:window-height="715"
     id="namedview18"
     showgrid="false"
     inkscape:zoom="7.375"
     inkscape:cx="16"
     inkscape:cy="32.271186"
     inkscape:window-x="-8"
     inkscape:window-y="-8"
     inkscape:window-maximized="1"
     inkscape:current-layer="Happy" /><linearGradient
     gradientTransform="matrix(2,0,0,-2,-580,-694)"
     gradientUnits="userSpaceOnUse"
     id="SVGID_1_"
     x1="314.00101"
     x2="297.99799"
     y1="-349.1416"
     y2="-376.8595"><stop
       offset="0"
       style="stop-color:#FFE254"
       id="stop2" /><stop
       offset="1"
       style="stop-color:#FFB255"
       id="stop4" /></linearGradient><circle
     cx="32"
     cy="32"
     r="32"
     style="fill:url(#SVGID_1_);stroke-width:2"
     id="circle7" /><path
     d="M 32,54 C 44.15,54 54,44.15 54,32 H 10 c 0,12.15 9.85,22 22,22 z"
     style="fill:#f52c5b;stroke-width:2"
     id="path9"
     inkscape:connector-curvature="0" /><path
     d="m 32,38 c 6.832,0 12.936,3.114 16.968,8 C 52.114,42.196 54,37.318 54,32 H 10 c 0,5.318 1.888,10.196 5.03,14 4.034,-4.886 10.138,-8 16.97,-8 z"
     style="fill:#212731;stroke-width:2"
     id="path11"
     inkscape:connector-curvature="0" /><path
     d="m 53.7,26.76 c -0.16,0.542 -0.758,0.82 -1.28,0.66 L 42.8,24.48 C 42.258,24.32 42,23.76 42,23.24 v -0.48 c 0,-0.52 0.26,-1.08 0.8,-1.24 l 9.68,-2.94 c 0.54,-0.16 1.1,0.12 1.26,0.66 0.16,0.52 -0.14,1.08 -0.682,1.24 L 44.9,23 l 8.158,2.52 c 0.522,0.16 0.802,0.72 0.642,1.24 z"
     style="fill:#212731;stroke-width:2"
     id="path13"
     inkscape:connector-curvature="0" /><path
     d="m 10.084,19.24 c 0.16,-0.542 0.76,-0.82 1.28,-0.66 l 9.728,2.94 C 21.632,21.68 22,22.24 22,22.76 v 0.48 c 0,0.52 -0.368,1.08 -0.908,1.24 l -9.734,2.94 c -0.54,0.16 -1.126,-0.12 -1.288,-0.66 -0.16,-0.52 0.126,-1.08 0.666,-1.24 L 18.888,23 10.724,20.48 c -0.518,-0.16 -0.802,-0.72 -0.64,-1.24 z"
     style="fill:#212731;stroke-width:2"
     id="path15"
     inkscape:connector-curvature="0" /></svg>